<?xml version="1.0" encoding="utf-8"?>
<!-- Generator: Adobe Illustrator 23.0.3, SVG Export Plug-In . SVG Version: 6.00 Build 0)  -->
<svg version="1.1" id="Layer_1" xmlns="http://www.w3.org/2000/svg" xmlns:xlink="http://www.w3.org/1999/xlink" x="0px" y="0px"
	 viewBox="0 0 316.7 78" style="enable-background:new 0 0 316.7 78;" xml:space="preserve">
<style type="text/css">
	.st0{fill:#0C77BF;}
	.st1{fill:#001026;}
</style>
<polygon class="st0" points="28.8,21.3 64.2,21.3 64.2,28.6 52,36.9 52,28.5 41.1,28.5 41.1,49.4 52.2,49.4 75.1,33.8 75.1,26.1 
	75.1,10.4 17.9,10.4 17.9,67.6 75.1,67.6 75.1,40.8 64.2,48.2 64.2,56.7 28.8,56.7 "/>
<g>
	<path class="st1" d="M86.5,38.1c0-9.8,7.4-16.3,17.1-16.3c7.6,0,11.7,4.3,13.8,8.4l-7,3.4c-1-2.5-3.7-4.6-6.8-4.6
		c-5.2,0-8.8,3.9-8.8,9.1s3.6,9.1,8.8,9.1c3,0,5.7-2.1,6.8-4.6l7,3.3c-2,4-6.2,8.5-13.8,8.5C93.9,54.4,86.5,47.8,86.5,38.1z"/>
	<path class="st1" d="M138.5,53.8l-5.3-10.6H129v10.6h-8.1V22.2h15.8c7,0,11,4.6,11,10.5c0,5.5-3.3,8.4-6.3,9.5l6.4,11.6
		C147.8,53.8,138.5,53.8,138.5,53.8z M139.4,32.7c0-2.2-1.8-3.4-3.9-3.4H129v6.8h6.4C137.6,36.1,139.4,34.9,139.4,32.7z"/>
	<path class="st1" d="M152.2,53.8V22.2h8.1v31.6C160.3,53.8,152.2,53.8,152.2,53.8z"/>
	<path class="st1" d="M164.4,38.1c0-9.8,7.4-16.3,17.1-16.3c7.6,0,11.7,4.3,13.8,8.4l-7,3.4c-1-2.5-3.7-4.6-6.8-4.6
		c-5.2,0-8.8,3.9-8.8,9.1s3.6,9.1,8.8,9.1c3,0,5.7-2.1,6.8-4.6l7,3.3c-2,4-6.2,8.5-13.8,8.5C171.8,54.4,164.4,47.8,164.4,38.1z"/>
	<path class="st1" d="M198.6,53.8V22.2h8.1v24.5h12.7v7.1H198.6z"/>
	<path class="st1" d="M223.6,53.8V22.2h8.1v31.6C231.7,53.8,223.6,53.8,223.6,53.8z"/>
	<path class="st1" d="M235.9,38.1c0-9.8,7.4-16.3,17.1-16.3c7.6,0,11.7,4.3,13.8,8.4l-7,3.4c-1-2.5-3.7-4.6-6.8-4.6
		c-5.2,0-8.8,3.9-8.8,9.1s3.6,9.1,8.8,9.1c3,0,5.7-2.1,6.8-4.6l7,3.3c-2,4-6.2,8.5-13.8,8.5C243.2,54.4,235.9,47.8,235.9,38.1z"/>
	<path class="st1" d="M288.8,53.8l-8.3-11.9l-2.1,2.7v9.2h-8.1V22.2h8.1v13l9.7-13h10L285.9,37l12.9,16.8H288.8z"/>
</g>
</svg>
